<svg width="37" height="38" viewBox="0 0 37 38" fill="none" xmlns="http://www.w3.org/2000/svg">
<path d="M33.5894 34.4819V4.34664L37 7.76179V37.8971H5.11597C3.7591 37.8955 2.45831 37.3548 1.49915 36.3938C0.539981 35.4328 0.000814449 34.1299 0 32.7713V6.08195C0.00162738 4.72354 0.541055 3.42118 1.50005 2.46035C2.45904 1.49952 3.75935 0.958593 5.11597 0.956146H7.1599V13.3253L9.85025 11.3372L12.5437 13.3253V0.953064H30.1787V31.0668H6.01481C5.35236 30.9628 4.67419 31.0832 4.08785 31.4089C3.88184 31.569 3.7148 31.7739 3.59932 32.008C3.48383 32.2422 3.4229 32.4995 3.42112 32.7606C3.41934 33.0218 3.47676 33.2799 3.58905 33.5156C3.70134 33.7513 3.86557 33.9584 4.06938 34.1213C4.41683 34.375 4.84037 34.5022 5.26988 34.4819H33.5894Z" fill="#F5F5F5"/>
</svg>