<svg width="45" height="46" viewBox="0 0 45 46" fill="none" xmlns="http://www.w3.org/2000/svg">
<path d="M40.7001 23.8433V21.3811L43.8784 18.6776C44.4643 18.1755 44.8487 17.4883 44.9638 16.7374C45.0789 15.9865 44.9173 15.2202 44.5074 14.5739L40.6008 8.13685C40.3105 7.64806 39.8931 7.24207 39.3905 6.95961C38.8879 6.67716 38.3177 6.52817 37.7371 6.52759C37.3773 6.52491 37.0195 6.57926 36.6777 6.68851L32.6552 8.00811C31.9616 7.558 31.2371 7.15473 30.4867 6.80116L29.6425 2.74581C29.4911 2.00491 29.0765 1.33937 28.4712 0.865705C27.866 0.392036 27.1086 0.140415 26.3318 0.154888H18.5848C17.8079 0.140415 17.0506 0.392036 16.4453 0.865705C15.8401 1.33937 15.4255 2.00491 15.2741 2.74581L14.4299 6.80116C13.675 7.15625 12.945 7.55945 12.2448 8.00811L8.30512 6.62414C7.95965 6.53664 7.60189 6.50403 7.2457 6.52759C6.66513 6.52817 6.09493 6.67716 5.59229 6.95961C5.08965 7.24207 4.67225 7.64806 4.38196 8.13685L0.475359 14.5739C0.0889805 15.2192 -0.054596 15.975 0.0692195 16.7119C0.193035 17.4488 0.576539 18.121 1.15405 18.6132L4.28264 21.3972V23.8594L1.15405 26.563C0.560226 27.0586 0.166233 27.7428 0.0419881 28.494C-0.0822565 29.2452 0.071283 30.015 0.475359 30.6666L4.38196 37.1037C4.67225 37.5925 5.08965 37.9984 5.59229 38.2809C6.09493 38.5634 6.66513 38.7124 7.2457 38.7129C7.60549 38.7156 7.96332 38.6613 8.30512 38.552L12.3276 37.2324C13.0212 37.6825 13.7457 38.0858 14.4961 38.4394L15.3403 42.4947C15.4917 43.2356 15.9063 43.9011 16.5116 44.3748C17.1168 44.8485 17.8741 45.1001 18.651 45.0856H26.4642C27.2411 45.1001 27.9984 44.8485 28.6037 44.3748C29.2089 43.9011 29.6235 43.2356 29.7749 42.4947L30.6191 38.4394C31.374 38.0843 32.104 37.6811 32.8042 37.2324L36.8101 38.552C37.1519 38.6613 37.5097 38.7156 37.8695 38.7129C38.4501 38.7124 39.0203 38.5634 39.5229 38.2809C40.0256 37.9984 40.443 37.5925 40.7333 37.1037L44.5074 30.6666C44.8938 30.0213 45.0374 29.2655 44.9136 28.5286C44.7898 27.7917 44.4062 27.1196 43.8287 26.6273L40.7001 23.8433ZM37.7371 35.4944L32.0593 33.6276C30.7293 34.721 29.2105 35.5764 27.5733 36.1542L26.398 41.9315H18.5848L17.4095 36.2186C15.7852 35.6246 14.2745 34.7706 12.9401 33.692L7.2457 35.4944L3.3391 29.0573L7.84163 25.1951C7.53555 23.5293 7.53555 21.8239 7.84163 20.1581L3.3391 16.1832L7.2457 9.74612L12.9235 11.6129C14.2535 10.5195 15.7723 9.66409 17.4095 9.08632L18.5848 3.30905H26.398L27.5733 9.02195C29.1976 9.61594 30.7083 10.4699 32.0427 11.5485L37.7371 9.74612L41.6437 16.1832L37.1412 20.0454C37.4472 21.7112 37.4472 23.4166 37.1412 25.0824L41.6437 29.0573L37.7371 35.4944Z" fill="#F5F5F5"/>
<path d="M22.4998 31.1069C21.0165 31.1069 19.5665 30.6677 18.3331 29.8449C17.0998 29.0221 16.1385 27.8525 15.5709 26.4842C15.0032 25.1158 14.8547 23.6102 15.1441 22.1575C15.4335 20.7049 16.1478 19.3706 17.1966 18.3233C18.2455 17.276 19.5819 16.5628 21.0367 16.2739C22.4915 15.985 23.9995 16.1332 25.3699 16.7C26.7403 17.2668 27.9116 18.2266 28.7357 19.4581C29.5598 20.6896 29.9996 22.1374 29.9996 23.6185C30.0096 24.6047 29.8225 25.5829 29.4492 26.496C29.0758 27.409 28.5238 28.2386 27.8253 28.9359C27.1269 29.6333 26.2961 30.1845 25.3817 30.5573C24.4672 30.9301 23.4875 31.1169 22.4998 31.1069ZM22.4998 18.6262C21.839 18.6108 21.182 18.7294 20.5684 18.9749C19.9548 19.2203 19.3975 19.5875 18.9301 20.0542C18.4627 20.5208 18.095 21.0773 17.8492 21.69C17.6033 22.3026 17.4845 22.9587 17.4999 23.6185C17.4845 24.2783 17.6033 24.9343 17.8492 25.547C18.095 26.1596 18.4627 26.7161 18.9301 27.1828C19.3975 27.6495 19.9548 28.0166 20.5684 28.2621C21.182 28.5075 21.839 28.6261 22.4998 28.6108C23.1606 28.6261 23.8177 28.5075 24.4312 28.2621C25.0448 28.0166 25.6021 27.6495 26.0695 27.1828C26.5369 26.7161 26.9046 26.1596 27.1505 25.547C27.3963 24.9343 27.5151 24.2783 27.4997 23.6185C27.5151 22.9587 27.3963 22.3026 27.1505 21.69C26.9046 21.0773 26.5369 20.5208 26.0695 20.0542C25.6021 19.5875 25.0448 19.2203 24.4312 18.9749C23.8177 18.7294 23.1606 18.6108 22.4998 18.6262Z" fill="#F5F5F5"/>
</svg>