<svg width="25" height="25" viewBox="0 0 25 25" fill="none" xmlns="http://www.w3.org/2000/svg">
<path d="M25 23.6925L18.0167 16.7091C19.6948 14.6945 20.5316 12.1104 20.3531 9.49452C20.1745 6.8786 18.9943 4.43223 17.058 2.66432C15.1216 0.896406 12.5782 -0.0569296 9.95692 0.00263186C7.33559 0.0621934 4.83814 1.13007 2.9841 2.9841C1.13007 4.83814 0.0621934 7.33559 0.00263186 9.95692C-0.0569296 12.5782 0.896406 15.1216 2.66432 17.058C4.43223 18.9943 6.8786 20.1745 9.49452 20.3531C12.1104 20.5316 14.6945 19.6948 16.7091 18.0167L23.6925 25L25 23.6925ZM1.88247 10.2048C1.88247 8.55878 2.37056 6.94975 3.28503 5.58115C4.1995 4.21256 5.49927 3.14586 7.01997 2.51597C8.54067 1.88607 10.214 1.72126 11.8284 2.04238C13.4428 2.3635 14.9256 3.15612 16.0895 4.32002C17.2534 5.48391 18.0461 6.96681 18.3672 8.58118C18.6883 10.1955 18.5235 11.8689 17.8936 13.3896C17.2637 14.9103 16.197 16.2101 14.8284 17.1245C13.4598 18.039 11.8508 18.5271 10.2048 18.5271C7.99832 18.5246 5.88293 17.647 4.32272 16.0868C2.76252 14.5266 1.88492 12.4112 1.88247 10.2048Z" fill="white"/>
</svg>