<svg width="37" height="38" viewBox="0 0 37 38" fill="none" xmlns="http://www.w3.org/2000/svg">
<path d="M35.15 0.822998H22.2C20.8302 0.827874 19.5112 1.36854 18.5 2.33967C17.4888 1.36854 16.1698 0.827874 14.8 0.822998H1.85C1.35935 0.822998 0.888795 1.02786 0.541852 1.39251C0.19491 1.75717 0 2.25175 0 2.76745V31.9342C0 32.4499 0.19491 32.9444 0.541852 33.3091C0.888795 33.6737 1.35935 33.8786 1.85 33.8786H12.5023C13.4831 33.881 14.4233 34.2905 15.1182 35.0181L17.1921 37.1978C17.2087 37.2153 17.2309 37.2211 17.2476 37.2386C17.4067 37.3942 17.5842 37.5303 17.7914 37.6197H17.7952C18.2465 37.8161 18.7535 37.8161 19.2048 37.6197H19.2086C19.4158 37.5303 19.5933 37.3922 19.7525 37.2386C19.7691 37.2211 19.7913 37.2153 19.8079 37.1978L21.8818 35.0181C22.5767 34.2905 23.5169 33.881 24.4977 33.8786H35.15C35.6407 33.8786 36.1112 33.6737 36.4581 33.3091C36.8051 32.9444 37 32.4499 37 31.9342V2.76745C37 2.25175 36.8051 1.75717 36.4581 1.39251C36.1112 1.02786 35.6407 0.822998 35.15 0.822998ZM33.3 29.9897H24.4977C23.0193 29.9942 21.5756 30.4605 20.35 31.3294V6.65634C20.35 5.58495 21.1788 4.71189 22.2 4.71189H33.3V29.9897Z" fill="#F5F5F5"/>
</svg>
