<svg width="37" height="37" viewBox="0 0 37 37" fill="none" xmlns="http://www.w3.org/2000/svg">
<path d="M18.1884 26.2811C18.2254 26.3299 18.2727 26.3694 18.3267 26.3965C18.3807 26.4237 18.4399 26.4378 18.5 26.4378C18.5601 26.4378 18.6193 26.4237 18.6733 26.3965C18.7273 26.3694 18.7746 26.3299 18.8116 26.2811L24.3517 19.046C24.5545 18.7805 24.3715 18.3873 24.0401 18.3873H20.3747V1.10897C20.3747 0.884313 20.1967 0.7005 19.979 0.7005H17.0111C16.7934 0.7005 16.6154 0.884313 16.6154 1.10897V18.3822H12.9599C12.6285 18.3822 12.4455 18.7754 12.6483 19.0409L18.1884 26.2811ZM36.6043 24.494H33.6364C33.4187 24.494 33.2406 24.6778 33.2406 24.9025V32.7656H3.75936V24.9025C3.75936 24.6778 3.58128 24.494 3.36364 24.494H0.395722C0.178075 24.494 0 24.6778 0 24.9025V35.0121C0 35.9159 0.707353 36.646 1.58289 36.646H35.4171C36.2926 36.646 37 35.9159 37 35.0121V24.9025C37 24.6778 36.8219 24.494 36.6043 24.494Z" fill="#F5F5F5"/>
</svg>
